<svg width="1200" height="420" viewBox="0 0 1200 420" fill="none" xmlns="http://www.w3.org/2000/svg">
<g clip-path="url(#clip0_1_60)">
<path d="M508.896 0.000152588H458.808C456.157 0.000152588 454.008 2.12767 454.008 4.75209V281.053C454.008 283.678 456.157 285.805 458.808 285.805H508.896C511.547 285.805 513.696 283.678 513.696 281.053V4.75209C513.696 2.12767 511.547 0.000152588 508.896 0.000152588Z" fill="white"/>
<path d="M131.64 87.1273L94.5363 197.348L57.4323 87.1273C57.0963 86.1532 56.1843 85.5117 55.1523 85.5117H0.528288C-1.10371 85.5117 -2.25571 87.1036 -1.75171 88.6479L64.0803 284.19C64.4163 285.164 65.3283 285.806 66.3603 285.806H122.736C123.768 285.806 124.68 285.141 125.016 284.19L190.848 88.6479C191.376 87.1036 190.2 85.5117 188.568 85.5117H133.944C132.912 85.5117 132 86.1769 131.664 87.1273H131.64Z" fill="white"/>
<path d="M1195.2 0.000152588H1145.11C1142.46 0.000152588 1140.31 2.12767 1140.31 4.75209V281.053C1140.31 283.678 1142.46 285.805 1145.11 285.805H1195.2C1197.85 285.805 1200 283.678 1200 281.053V4.75209C1200 2.12767 1197.85 0.000152588 1195.2 0.000152588Z" fill="white"/>
<path d="M1004.04 139.517C1028.33 139.517 1048.08 159.072 1048.08 183.116C1048.08 207.161 1028.33 226.715 1004.04 226.715C979.752 226.715 960 207.161 960 183.116C960 159.072 979.752 139.517 1004.04 139.517ZM1004.04 80.4269C946.752 80.4269 900.312 126.402 900.312 183.116C900.312 239.831 946.752 285.806 1004.04 285.806C1061.33 285.806 1107.77 239.831 1107.77 183.116C1107.77 126.402 1061.33 80.4269 1004.04 80.4269Z" fill="white"/>
<path d="M655.752 139.517C680.04 139.517 699.792 159.072 699.792 183.116C699.792 207.161 680.04 226.715 655.752 226.715C631.464 226.715 611.712 207.161 611.712 183.116C611.712 159.072 631.464 139.517 655.752 139.517ZM655.752 80.4269C598.464 80.4269 552.024 126.402 552.024 183.116C552.024 239.831 598.464 285.806 655.752 285.806C713.04 285.806 759.48 239.831 759.48 183.116C759.48 126.402 713.04 80.4269 655.752 80.4269Z" fill="white"/>
<path d="M361.656 200.58H410.664C411.84 200.58 412.848 199.748 413.04 198.607C413.88 193.547 414.456 188.415 414.456 183.116C414.456 174.61 413.304 166.389 411.336 158.501C399.984 112.954 358.056 79.3101 308.28 80.4506C253.92 81.6861 209.184 125.261 207.096 179.053C204.816 237.621 252.096 285.806 310.752 285.806C355.008 285.806 392.688 258.339 407.592 219.73C408.192 218.185 406.992 216.522 405.336 216.522H353.952C353.256 216.522 352.584 216.831 352.128 217.378C342.216 229.091 327.36 236.552 310.776 236.552C308.448 236.552 306.168 236.362 303.912 236.077C303.288 236.005 302.688 235.886 302.064 235.791C300.264 235.506 298.488 235.126 296.76 234.651C296.328 234.532 295.872 234.437 295.44 234.318C293.304 233.677 291.216 232.916 289.176 232.037C288.84 231.895 288.528 231.729 288.216 231.586C286.56 230.826 284.928 229.994 283.368 229.067C282.912 228.782 282.432 228.521 281.976 228.236C278.136 225.836 274.656 222.961 271.56 219.706C271.368 219.492 271.176 219.302 270.984 219.088C270.216 218.257 269.448 217.425 268.728 216.546C268.056 215.738 267.432 214.883 266.832 214.028C266.784 213.956 266.736 213.909 266.688 213.837C265.296 211.889 264.048 209.87 262.944 207.755C262.032 206.021 261.24 204.239 260.52 202.433C260.4 202.1 260.28 201.768 260.16 201.435C260.064 201.15 259.896 200.603 259.896 200.603H361.752L361.656 200.58ZM262.872 158.477C264 156.363 265.248 154.319 266.616 152.395C266.664 152.324 266.712 152.276 266.76 152.205C268.032 150.423 269.424 148.76 270.912 147.144C271.104 146.93 271.296 146.74 271.488 146.526C274.584 143.271 278.088 140.396 281.928 137.997C282.312 137.759 282.696 137.545 283.08 137.308C284.736 136.333 286.416 135.43 288.168 134.623C288.504 134.48 288.792 134.314 289.128 134.171C291.144 133.292 293.256 132.532 295.392 131.89C295.824 131.771 296.28 131.676 296.736 131.558C298.464 131.082 300.24 130.726 302.04 130.417C302.664 130.322 303.264 130.227 303.888 130.132C306.144 129.847 308.424 129.657 310.752 129.657C313.08 129.657 315.36 129.847 317.616 130.132C318.24 130.203 318.84 130.322 319.464 130.417C321.264 130.702 323.04 131.082 324.768 131.558C325.2 131.676 325.656 131.771 326.112 131.89C328.272 132.532 330.36 133.292 332.376 134.171C332.712 134.314 333.024 134.48 333.336 134.623C335.088 135.43 336.792 136.31 338.424 137.308C338.808 137.545 339.192 137.759 339.576 137.997C343.416 140.396 346.896 143.271 349.992 146.526C350.184 146.74 350.376 146.93 350.568 147.144C352.056 148.76 353.448 150.423 354.72 152.205C354.768 152.276 354.816 152.324 354.864 152.395C356.256 154.343 357.504 156.363 358.608 158.477H262.872Z" fill="white"/>
<path d="M808.32 85.5117C805.68 85.5117 803.52 87.65 803.52 90.2636V316.242C803.52 339.859 785.016 359.984 761.184 360.886C737.352 361.789 717.936 344.231 715.656 321.683C715.416 319.212 713.376 317.311 710.88 317.311H660.672C657.912 317.311 655.728 319.616 655.872 322.348C658.56 377.304 704.856 420.927 761.256 419.977C818.136 419.026 863.208 371.911 863.208 315.6V90.2636C863.208 87.65 861.048 85.5117 858.408 85.5117H808.32Z" fill="white"/>
</g>
<defs>
<clipPath id="clip0_1_60">
<rect width="1200" height="420" fill="white"/>
</clipPath>
</defs>
</svg>
