<svg width="24" height="24" viewBox="0 0 24 24" fill="none" xmlns="http://www.w3.org/2000/svg">
<path d="M1.2 6.2114C0.909846 6.2114 0.665287 6.11192 0.466323 5.91296C0.267359 5.7057 0.167877 5.457 0.167877 5.16684C0.167877 4.87669 0.267359 4.63213 0.466323 4.43317C0.665287 4.2342 0.909846 4.13472 1.2 4.13472L22.9679 4.13472C23.258 4.13472 23.5026 4.2342 23.7016 4.43317C23.9005 4.63213 24 4.87669 24 5.16684C24 5.457 23.9005 5.7057 23.7016 5.91296C23.5026 6.11192 23.258 6.2114 22.9679 6.2114H1.2ZM1.2 13.3741C0.909846 13.3741 0.665287 13.2746 0.466323 13.0757C0.267359 12.8767 0.167877 12.6321 0.167877 12.342C0.167877 12.0518 0.267359 11.8073 0.466323 11.6083C0.665287 11.4093 0.909846 11.3098 1.2 11.3098H22.9679C23.258 11.3098 23.5026 11.4093 23.7016 11.6083C23.9005 11.8073 24 12.0518 24 12.342C24 12.6321 23.9005 12.8767 23.7016 13.0757C23.5026 13.2746 23.258 13.3741 22.9679 13.3741H1.2ZM1.2 20.5492C0.909846 20.5492 0.665287 20.4497 0.466323 20.2508C0.267359 20.0518 0.167877 19.8073 0.167877 19.5171C0.167877 19.2269 0.267359 18.9824 0.466323 18.7834C0.665287 18.5762 0.909846 18.4725 1.2 18.4725H22.9679C23.258 18.4725 23.5026 18.5762 23.7016 18.7834C23.9005 18.9824 24 19.2269 24 19.5171C24 19.8073 23.9005 20.0518 23.7016 20.2508C23.5026 20.4497 23.258 20.5492 22.9679 20.5492H1.2Z" fill="#66FF80"/>
</svg>
