<?xml version="1.0" standalone="no"?>
<!DOCTYPE svg PUBLIC "-//W3C//DTD SVG 20010904//EN"
 "http://www.w3.org/TR/2001/REC-SVG-20010904/DTD/svg10.dtd">
<svg version="1.0" xmlns="http://www.w3.org/2000/svg"
 width="500.000000pt" height="500.000000pt" viewBox="0 0 500.000000 500.000000"
 preserveAspectRatio="xMidYMid meet">
<metadata>
Created by potrace 1.14, written by Peter Selinger 2001-2017
</metadata>
<g transform="translate(0.000000,500.000000) scale(0.100000,-0.100000)"
fill="#000000" stroke="none">
<path d="M823 4985 c-387 -70 -683 -347 -796 -743 l-22 -77 -3 -1624 c-3
-1798 -5 -1713 62 -1892 53 -141 118 -240 231 -354 153 -153 326 -244 530
-280 132 -23 3218 -23 3350 0 204 36 377 127 530 280 153 153 244 326 280 530
23 132 23 3218 0 3350 -36 204 -127 377 -280 530 -114 113 -213 178 -354 231
-177 67 -95 64 -1860 63 -1263 -1 -1611 -4 -1668 -14z m1021 -1111 c13 -12 16
-41 16 -153 0 -153 0 -152 -66 -170 -56 -15 -103 -48 -138 -99 -26 -37 -31
-55 -34 -116 -5 -83 13 -128 70 -183 50 -49 95 -63 195 -63 l88 0 80 171 c44
93 87 174 95 179 18 10 300 -122 300 -141 0 -6 -20 -54 -45 -107 -25 -52 -45
-96 -45 -98 0 -2 110 -4 244 -4 l245 0 -55 116 c-30 64 -51 120 -48 125 11 18
266 140 286 137 15 -2 61 -90 207 -392 l187 -390 105 3 c129 3 213 -15 329
-71 115 -55 248 -186 303 -298 59 -119 81 -224 74 -350 -16 -306 -220 -557
-517 -636 -87 -23 -244 -23 -330 -1 -247 65 -440 254 -506 497 -27 99 -25 264
5 360 34 110 85 202 159 281 l65 70 -50 107 -50 107 -407 3 -406 2 -55 -111
-55 -111 64 -69 c72 -78 123 -169 157 -279 30 -96 32 -261 5 -360 -66 -243
-259 -432 -506 -497 -86 -22 -243 -22 -330 1 -297 79 -501 330 -517 636 -7
126 15 231 74 350 55 112 188 243 303 298 118 57 200 74 333 70 l109 -3 14 34
c8 19 13 35 12 36 -2 1 -32 8 -68 15 -187 39 -350 181 -420 365 -28 75 -37
210 -21 297 35 178 174 347 341 412 40 16 146 43 177 45 6 1 19 -6 27 -15z"/>
<path d="M1555 2277 c-118 -46 -183 -132 -193 -253 -17 -219 214 -377 411
-281 129 64 192 204 153 341 -10 32 -20 56 -23 52 -3 -3 -36 -69 -74 -148 -38
-79 -75 -147 -82 -152 -20 -13 -297 121 -297 144 0 9 25 68 56 131 52 106 86
180 81 178 -1 0 -15 -6 -32 -12z"/>
<path d="M3687 2146 c38 -79 62 -139 58 -146 -9 -14 -268 -140 -288 -140 -7 0
-45 66 -85 146 l-72 147 -17 -39 c-26 -58 -23 -177 5 -231 99 -191 337 -227
477 -71 126 140 87 359 -80 447 -22 12 -45 21 -52 21 -7 0 16 -57 54 -134z"/>
</g>
</svg>
