<svg width="18" height="18" viewBox="0 0 18 18" fill="none" xmlns="http://www.w3.org/2000/svg">
<path d="M15.75 9.0001C15.75 9.29014 15.6516 9.53615 15.4549 9.73815L10.9033 14.5316C10.8 14.6352 10.6918 14.7128 10.5787 14.7646C10.4607 14.8216 10.3426 14.8501 10.2246 14.8501C9.94426 14.8501 9.71803 14.7595 9.5459 14.5782C9.36885 14.3969 9.28033 14.169 9.28033 13.8945C9.28033 13.7443 9.30984 13.6097 9.36885 13.4905C9.42295 13.3714 9.4918 13.2678 9.57541 13.1798L11.1393 11.5172L13.5148 9.2254L13.9057 9.84691L11.2574 9.99452L3.23852 9.99452C2.94344 9.99452 2.70492 9.90129 2.52295 9.71484C2.34098 9.53356 2.25 9.29532 2.25 9.0001C2.25 8.6997 2.34098 8.45627 2.52295 8.26982C2.70492 8.08336 2.94344 7.99014 3.23852 7.99014L11.2574 7.99014L13.9057 8.14552L13.5148 8.76703L11.1393 6.4752L9.57541 4.82042C9.4918 4.73237 9.42295 4.62619 9.36885 4.50189C9.30984 4.38277 9.28033 4.24811 9.28033 4.09791C9.28033 3.82858 9.36885 3.60328 9.5459 3.42201C9.71803 3.24073 9.94426 3.1501 10.2246 3.1501C10.4705 3.1501 10.6943 3.25368 10.8959 3.46085L15.4549 8.25428C15.6516 8.45627 15.75 8.70488 15.75 9.0001Z" fill="#262626"/>
</svg>
