<svg width="24" height="24" viewBox="0 0 24 24" fill="none" xmlns="http://www.w3.org/2000/svg">
<path d="M1.27734 12C1.27734 11.5625 1.43359 11.1914 1.74609 10.8867L8.97656 3.65625C9.14063 3.5 9.3125 3.38281 9.49219 3.30469C9.67969 3.21875 9.86719 3.17578 10.0547 3.17578C10.5 3.17578 10.8594 3.3125 11.1328 3.58594C11.4141 3.85938 11.5547 4.20313 11.5547 4.61719C11.5547 4.84375 11.5078 5.04688 11.4141 5.22656C11.3281 5.40625 11.2188 5.5625 11.0859 5.69531L8.60156 8.20313L4.82813 11.6602L4.20703 10.7227L8.41406 10.5H21.1523C21.6211 10.5 22 10.6406 22.2891 10.9219C22.5781 11.1953 22.7227 11.5547 22.7227 12C22.7227 12.4531 22.5781 12.8203 22.2891 13.1016C22 13.3828 21.6211 13.5234 21.1523 13.5234H8.41406L4.20703 13.2891L4.82813 12.3516L8.60156 15.8086L11.0859 18.3047C11.2188 18.4375 11.3281 18.5977 11.4141 18.7852C11.5078 18.9648 11.5547 19.168 11.5547 19.3945C11.5547 19.8008 11.4141 20.1406 11.1328 20.4141C10.8594 20.6875 10.5 20.8242 10.0547 20.8242C9.66406 20.8242 9.30859 20.668 8.98828 20.3555L1.74609 13.125C1.43359 12.8203 1.27734 12.4453 1.27734 12Z" fill="white"/>
</svg>
