<svg width="16" height="16" viewBox="0 0 16 16" fill="none" xmlns="http://www.w3.org/2000/svg">
<path d="M2 8.00005C2 7.74224 2.08743 7.52355 2.2623 7.34401L6.3082 3.08318C6.4 2.99111 6.49617 2.92205 6.59672 2.87601C6.70164 2.82537 6.80656 2.80005 6.91148 2.80005C7.16066 2.80005 7.36175 2.88062 7.51475 3.04175C7.67213 3.20288 7.75082 3.40545 7.75082 3.64945C7.75082 3.78296 7.72459 3.90266 7.67213 4.00855C7.62404 4.11444 7.56284 4.20651 7.48852 4.28478L6.09836 5.7626L3.98689 7.79978L3.63934 7.24733L5.99344 7.11612H13.1213C13.3836 7.11612 13.5956 7.19899 13.7574 7.36472C13.9191 7.52586 14 7.73763 14 8.00005C14 8.26707 13.9191 8.48345 13.7574 8.64919C13.5956 8.81492 13.3836 8.89779 13.1213 8.89779H5.99344L3.63934 8.75968L3.98689 8.20722L6.09836 10.2444L7.48852 11.7153C7.56284 11.7936 7.62404 11.888 7.67213 11.9985C7.72459 12.1043 7.75082 12.224 7.75082 12.3576C7.75082 12.5969 7.67213 12.7972 7.51475 12.9583C7.36175 13.1195 7.16066 13.2 6.91148 13.2C6.6929 13.2 6.49399 13.108 6.31475 12.9238L2.2623 8.663C2.08743 8.48345 2 8.26247 2 8.00005Z" fill="#333333"/>
</svg>
