<svg width="24" height="24" viewBox="0 0 24 24" fill="none" xmlns="http://www.w3.org/2000/svg">
<path d="M22.7227 12C22.7227 12.4375 22.5664 12.8086 22.2539 13.1133L15.0234 20.3437C14.8594 20.5 14.6875 20.6172 14.5078 20.6953C14.3203 20.7812 14.1328 20.8242 13.9453 20.8242C13.5 20.8242 13.1406 20.6875 12.8672 20.4141C12.5859 20.1406 12.4453 19.7969 12.4453 19.3828C12.4453 19.1562 12.4922 18.9531 12.5859 18.7734C12.6719 18.5937 12.7812 18.4375 12.9141 18.3047L15.3984 15.7969L19.1719 12.3398L19.793 13.2773L15.5859 13.5L2.84766 13.5C2.37891 13.5 2 13.3594 1.71094 13.0781C1.42188 12.8047 1.27734 12.4453 1.27734 12C1.27734 11.5469 1.42188 11.1797 1.71094 10.8984C2 10.6172 2.37891 10.4766 2.84766 10.4766L15.5859 10.4766L19.793 10.7109L19.1719 11.6484L15.3984 8.19141L12.9141 5.69531C12.7813 5.5625 12.6719 5.40234 12.5859 5.21484C12.4922 5.03515 12.4453 4.83203 12.4453 4.60547C12.4453 4.19922 12.5859 3.85937 12.8672 3.58594C13.1406 3.3125 13.5 3.17578 13.9453 3.17578C14.3359 3.17578 14.6914 3.33203 15.0117 3.64453L22.2539 10.875C22.5664 11.1797 22.7227 11.5547 22.7227 12Z" fill="white"/>
</svg>
