<svg width="40" height="40" viewBox="0 0 40 40" fill="none" xmlns="http://www.w3.org/2000/svg">
<g clip-path="url(#clip0_557_1168)">
<rect width="40" height="40" fill="white"/>
<path d="M0.829546 18.4545C0.778409 18.0227 0.571023 17.6875 0.207386 17.4489C-0.15625 17.2102 -0.602273 17.0909 -1.13068 17.0909C-1.51705 17.0909 -1.85511 17.1534 -2.14489 17.2784C-2.43182 17.4034 -2.65625 17.5753 -2.81818 17.794C-2.97727 18.0128 -3.05682 18.2614 -3.05682 18.5398C-3.05682 18.7727 -3.00142 18.973 -2.89062 19.1406C-2.77699 19.3054 -2.6321 19.4432 -2.45597 19.554C-2.27983 19.6619 -2.09517 19.7514 -1.90199 19.8224C-1.70881 19.8906 -1.53125 19.946 -1.36932 19.9886L-0.482954 20.2273C-0.255682 20.2869 -0.00284076 20.3693 0.275568 20.4744C0.556818 20.5795 0.825284 20.723 1.08097 20.9048C1.33949 21.0838 1.55256 21.3139 1.72017 21.5952C1.88778 21.8764 1.97159 22.2216 1.97159 22.6307C1.97159 23.1023 1.84801 23.5284 1.60085 23.9091C1.35653 24.2898 0.99858 24.5923 0.526989 24.8168C0.0582389 25.0412 -0.511364 25.1534 -1.18182 25.1534C-1.80682 25.1534 -2.34801 25.0526 -2.8054 24.8509C-3.25994 24.6491 -3.6179 24.3679 -3.87926 24.0071C-4.13778 23.6463 -4.28409 23.2273 -4.31818 22.75H-3.22727C-3.19886 23.0795 -3.08807 23.3523 -2.89489 23.5682C-2.69886 23.7812 -2.4517 23.9403 -2.15341 24.0455C-1.85227 24.1477 -1.52841 24.1989 -1.18182 24.1989C-0.778409 24.1989 -0.416193 24.1335 -0.0951703 24.0028C0.225852 23.8693 0.480114 23.6847 0.667614 23.4489C0.855114 23.2102 0.948864 22.9318 0.948864 22.6136C0.948864 22.3239 0.867898 22.0881 0.705966 21.9062C0.544034 21.7244 0.330966 21.5767 0.0667615 21.4631C-0.197443 21.3494 -0.482954 21.25 -0.789773 21.1648L-1.86364 20.858C-2.54545 20.6619 -3.08523 20.3821 -3.48295 20.0185C-3.88068 19.6548 -4.07955 19.179 -4.07955 18.5909C-4.07955 18.1023 -3.94744 17.6761 -3.68324 17.3125C-3.41619 16.946 -3.05824 16.6619 -2.60938 16.4602C-2.15767 16.2557 -1.65341 16.1534 -1.09659 16.1534C-0.534091 16.1534 -0.0340909 16.2543 0.403409 16.456C0.840909 16.6548 1.1875 16.9276 1.44318 17.2741C1.7017 17.6207 1.83807 18.0142 1.85227 18.4545H0.829546ZM3.23189 17.2102V16.2727H9.77734V17.2102H7.03303V25H5.97621V17.2102H3.23189ZM10.7468 25H9.63885L12.8434 16.2727H13.9343L17.1388 25H16.0309L13.4229 17.6534H13.3548L10.7468 25ZM11.1559 21.5909H15.6218V22.5284H11.1559V21.5909ZM17.0014 17.2102V16.2727H23.5469V17.2102H20.8026V25H19.7457V17.2102H17.0014ZM26.2347 16.2727V25H25.1779V16.2727H26.2347ZM35.7173 20.6364C35.7173 21.5568 35.5511 22.3523 35.2188 23.0227C34.8864 23.6932 34.4304 24.2102 33.8509 24.5739C33.2713 24.9375 32.6094 25.1193 31.8651 25.1193C31.1207 25.1193 30.4588 24.9375 29.8793 24.5739C29.2997 24.2102 28.8438 23.6932 28.5114 23.0227C28.179 22.3523 28.0128 21.5568 28.0128 20.6364C28.0128 19.7159 28.179 18.9205 28.5114 18.25C28.8438 17.5795 29.2997 17.0625 29.8793 16.6989C30.4588 16.3352 31.1207 16.1534 31.8651 16.1534C32.6094 16.1534 33.2713 16.3352 33.8509 16.6989C34.4304 17.0625 34.8864 17.5795 35.2188 18.25C35.5511 18.9205 35.7173 19.7159 35.7173 20.6364ZM34.6946 20.6364C34.6946 19.8807 34.5682 19.2429 34.3153 18.723C34.0653 18.2031 33.7259 17.8097 33.2969 17.5426C32.8707 17.2756 32.3935 17.142 31.8651 17.142C31.3366 17.142 30.858 17.2756 30.429 17.5426C30.0028 17.8097 29.6634 18.2031 29.4105 18.723C29.1605 19.2429 29.0355 19.8807 29.0355 20.6364C29.0355 21.392 29.1605 22.0298 29.4105 22.5497C29.6634 23.0696 30.0028 23.4631 30.429 23.7301C30.858 23.9972 31.3366 24.1307 31.8651 24.1307C32.3935 24.1307 32.8707 23.9972 33.2969 23.7301C33.7259 23.4631 34.0653 23.0696 34.3153 22.5497C34.5682 22.0298 34.6946 21.392 34.6946 20.6364ZM44.4148 16.2727V25H43.392L38.6364 18.1477H38.5511V25H37.4943V16.2727H38.517L43.2898 23.142H43.375V16.2727H44.4148Z" fill="black"/>
</g>
<defs>
<clipPath id="clip0_557_1168">
<rect width="40" height="40" fill="white"/>
</clipPath>
</defs>
</svg>
