<svg width="40" height="40" viewBox="0 0 40 40" fill="none" xmlns="http://www.w3.org/2000/svg">
<rect width="40" height="40" fill="white"/>
<path d="M5.05682 25V16.2727H6.11364V24.0625H10.1705V25H5.05682ZM12.7156 25H11.6076L14.8121 16.2727H15.9031L19.1076 25H17.9996L15.3917 17.6534H15.3235L12.7156 25ZM13.1246 21.5909H17.5906V22.5284H13.1246V21.5909ZM27.3874 16.2727V25H26.3647L21.609 18.1477H21.5238V25H20.467V16.2727H21.4897L26.2624 23.142H26.3477V16.2727H27.3874ZM29.5021 25V16.2727H34.7692V17.2102H30.5589V20.1591H34.4964V21.0966H30.5589V24.0625H34.8374V25H29.5021Z" fill="black"/>
</svg>
