<svg width="40" height="40" viewBox="0 0 40 40" fill="none" xmlns="http://www.w3.org/2000/svg">
<rect width="40" height="40" fill="white"/>
<path d="M5.05682 25V16.2727H8.00568C8.69034 16.2727 9.25 16.3963 9.68466 16.6435C10.1222 16.8878 10.446 17.2188 10.6562 17.6364C10.8665 18.054 10.9716 18.5199 10.9716 19.0341C10.9716 19.5483 10.8665 20.0156 10.6562 20.4361C10.4489 20.8565 10.1278 21.1918 9.69318 21.4418C9.25852 21.6889 8.7017 21.8125 8.02273 21.8125H5.90909V20.875H7.98864C8.45739 20.875 8.83381 20.794 9.1179 20.6321C9.40199 20.4702 9.60795 20.2514 9.7358 19.9759C9.86648 19.6974 9.93182 19.3835 9.93182 19.0341C9.93182 18.6847 9.86648 18.3722 9.7358 18.0966C9.60795 17.821 9.40057 17.6051 9.11364 17.4489C8.8267 17.2898 8.44602 17.2102 7.97159 17.2102H6.11364V25H5.05682ZM12.1413 25H11.0334L14.2379 16.2727H15.3288L18.5334 25H17.4254L14.8175 17.6534H14.7493L12.1413 25ZM12.5504 21.5909H17.0163V22.5284H12.5504V21.5909ZM19.8928 25V16.2727H22.8416C23.5234 16.2727 24.0831 16.3892 24.5206 16.6222C24.9581 16.8523 25.282 17.169 25.4922 17.5724C25.7024 17.9759 25.8075 18.4347 25.8075 18.9489C25.8075 19.4631 25.7024 19.919 25.4922 20.3168C25.282 20.7145 24.9595 21.027 24.5249 21.2543C24.0902 21.4787 23.5348 21.5909 22.8587 21.5909H20.4723V20.6364H22.8246C23.2905 20.6364 23.6655 20.5682 23.9496 20.4318C24.2365 20.2955 24.4439 20.1023 24.5717 19.8523C24.7024 19.5994 24.7678 19.2983 24.7678 18.9489C24.7678 18.5994 24.7024 18.294 24.5717 18.0327C24.4411 17.7713 24.2322 17.5696 23.9453 17.4276C23.6584 17.2827 23.2791 17.2102 22.8075 17.2102H20.9496V25H19.8928ZM24.0007 21.0795L26.1484 25H24.9212L22.8075 21.0795H24.0007ZM27.5685 25V16.2727H28.6254V20.6023H28.7276L32.6481 16.2727H34.0288L30.364 20.2102L34.0288 25H32.7504L29.7163 20.9432L28.6254 22.1705V25H27.5685Z" fill="black"/>
</svg>
