<svg width="18" height="18" viewBox="0 0 18 18" fill="none" xmlns="http://www.w3.org/2000/svg">
<path d="M3.11795 18C2.09231 18 1.31624 17.7434 0.789744 17.2303C0.263248 16.7172 0 15.9475 0 14.9213V3.08894C0 2.06271 0.263248 1.29304 0.789744 0.779932C1.31624 0.259977 2.09231 0 3.11795 0H14.8821C15.9145 0 16.6906 0.259977 17.2103 0.779932C17.7368 1.29989 18 2.06956 18 3.08894V14.9213C18 15.9407 17.7368 16.707 17.2103 17.2201C16.6906 17.74 15.9145 18 14.8821 18H3.11795ZM5.80513 13.0946C6.05812 13.0946 6.26667 13.0091 6.43077 12.8381L9.02564 10.2315L11.6308 12.8381C11.788 13.0091 11.9932 13.0946 12.2462 13.0946C12.4923 13.0946 12.6974 13.0091 12.8615 12.8381C13.0325 12.6602 13.1179 12.4515 13.1179 12.2121C13.1179 11.9658 13.0325 11.764 12.8615 11.6066L10.2462 9L12.8718 6.38312C13.0427 6.21893 13.1282 6.0171 13.1282 5.77765C13.1282 5.5382 13.0427 5.33637 12.8718 5.17218C12.7077 5.00114 12.506 4.91562 12.2667 4.91562C12.0342 4.91562 11.8325 5.00114 11.6615 5.17218L9.02564 7.79932L6.41026 5.18244C6.23248 5.0114 6.03077 4.92588 5.80513 4.92588C5.56581 4.92588 5.36068 5.0114 5.18974 5.18244C5.02564 5.34664 4.94359 5.54846 4.94359 5.78791C4.94359 6.02737 5.02906 6.22919 5.2 6.39339L7.81538 9L5.2 11.6169C5.02906 11.7879 4.94359 11.9863 4.94359 12.2121C4.94359 12.4515 5.02564 12.6602 5.18974 12.8381C5.36068 13.0091 5.56581 13.0946 5.80513 13.0946Z" fill="white" fill-opacity="0.5"/>
</svg>
