<svg width="20" height="20" viewBox="0 0 20 20" fill="none" xmlns="http://www.w3.org/2000/svg">
<path d="M3.46439 20C2.32479 20 1.46249 19.7149 0.877493 19.1448C0.292498 18.5747 0 17.7195 0 16.5792V3.43215C0 2.2919 0.292498 1.43672 0.877493 0.866591C1.46249 0.288864 2.32479 0 3.46439 0H16.5356C17.6828 0 18.5451 0.288864 19.1225 0.866591C19.7075 1.44432 20 2.29951 20 3.43215V16.5792C20 17.7119 19.7075 18.5633 19.1225 19.1334C18.5451 19.7111 17.6828 20 16.5356 20H3.46439ZM6.45014 14.5496C6.73124 14.5496 6.96296 14.4546 7.1453 14.2645L10.0285 11.3683L12.9231 14.2645C13.0978 14.4546 13.3257 14.5496 13.6068 14.5496C13.8803 14.5496 14.1083 14.4546 14.2906 14.2645C14.4805 14.0669 14.5755 13.835 14.5755 13.569C14.5755 13.2953 14.4805 13.0711 14.2906 12.8962L11.3846 10L14.302 7.09236C14.4919 6.90992 14.5869 6.68567 14.5869 6.41961C14.5869 6.15355 14.4919 5.9293 14.302 5.74686C14.1197 5.55682 13.8955 5.4618 13.6296 5.4618C13.3713 5.4618 13.1472 5.55682 12.9573 5.74686L10.0285 8.66591L7.12251 5.75827C6.92498 5.56822 6.70085 5.4732 6.45014 5.4732C6.18424 5.4732 5.95632 5.56822 5.76638 5.75827C5.58405 5.94071 5.49288 6.16496 5.49288 6.43101C5.49288 6.69707 5.58784 6.92132 5.77778 7.10376L8.68376 10L5.77778 12.9076C5.58784 13.0977 5.49288 13.3181 5.49288 13.569C5.49288 13.835 5.58405 14.0669 5.76638 14.2645C5.95632 14.4546 6.18424 14.5496 6.45014 14.5496Z" fill="#1A1A1A" fill-opacity="0.25"/>
</svg>
