<svg width="20" height="20" viewBox="0 0 20 20" fill="none" xmlns="http://www.w3.org/2000/svg">
<path d="M10.0039 14.0569C10.4383 14.0569 10.7935 13.7016 10.7935 13.2672V9.29571C10.7935 9.1062 10.7225 8.9325 10.5725 8.7588L8.50378 6.45322C8.3774 6.3111 8.46432 6.09791 8.66168 6.09791H11.1963C11.5041 6.09791 11.5989 6.319 11.5989 6.53218V8.49823C11.5989 8.9325 11.9543 9.27992 12.3885 9.27992H15.5705C16.0047 9.27992 16.3522 8.9325 16.3522 8.49823C16.3522 8.06396 16.0047 7.70866 15.5705 7.70866H13.178V4.91355C13.178 4.02922 12.4754 3.32649 11.591 3.32649H7.71419C6.90881 3.32649 6.19819 3.81603 5.88236 4.55034C5.57442 5.30044 5.74814 6.13739 6.31663 6.71379L9.21439 9.62733V13.2672C9.21439 13.7016 9.56966 14.0569 10.0039 14.0569ZM4.28741 17.1678C6.67194 17.1678 8.58269 15.257 8.58269 12.8725C8.58269 10.4959 6.67194 8.57719 4.28741 8.57719C1.91078 8.57719 0 10.4959 0 12.8725C0 15.257 1.91078 17.1678 4.28741 17.1678ZM4.28741 16.0545C2.54244 16.0545 1.1133 14.6253 1.1133 12.8725C1.1133 11.1196 2.54244 9.6905 4.28741 9.6905C6.04027 9.6905 7.46941 11.1196 7.46941 12.8725C7.46941 14.6253 6.04027 16.0545 4.28741 16.0545ZM17.8287 10.5116C18.4682 11.088 18.8867 11.9329 18.8867 12.8725C18.8867 14.6253 17.4576 16.0545 15.7126 16.0545C13.9597 16.0545 12.5306 14.6253 12.5306 12.8725C12.5306 12.4303 12.6175 11.9961 12.7832 11.617C12.9649 11.1907 12.7832 10.8907 12.507 10.7959C12.2464 10.6933 11.9384 10.7801 11.7963 11.1196C11.5515 11.6644 11.4173 12.2487 11.4173 12.8725C11.4173 15.257 13.3281 17.1678 15.7126 17.1678C18.0892 17.1678 20 15.257 20 12.8725C20 11.5776 19.4394 10.4406 18.5314 9.64312C18.2393 9.39045 17.9076 9.45362 17.7102 9.66681C17.5207 9.87999 17.4892 10.2116 17.8287 10.5116ZM15.7126 5.45046C16.6601 5.45046 17.426 4.67667 17.426 3.72128C17.426 2.77379 16.6601 2 15.7126 2C14.7493 2 13.9756 2.77379 13.9756 3.72128C13.9756 4.67667 14.7493 5.45046 15.7126 5.45046Z" fill="#1A1A1A" fill-opacity="0.5"/>
</svg>
