<svg width="20" height="20" viewBox="0 0 20 20" fill="none" xmlns="http://www.w3.org/2000/svg">
<path fill-rule="evenodd" clip-rule="evenodd" d="M0.117157 10.2881C-0.0390524 10.129 -0.0390524 9.87103 0.117157 9.71193L2.66274 7.11932C2.81895 6.96023 3.07222 6.96023 3.22843 7.11932C3.38464 7.27842 3.38464 7.53636 3.22843 7.69546L1.36569 9.59261H18.6343L16.7716 7.69546C16.6154 7.53636 16.6154 7.27842 16.7716 7.11932C16.9278 6.96023 17.181 6.96023 17.3373 7.11932L19.8828 9.71193C20.0391 9.87103 20.0391 10.129 19.8828 10.2881L17.3373 12.8807C17.181 13.0398 16.9278 13.0398 16.7716 12.8807C16.6154 12.7216 16.6154 12.4636 16.7716 12.3045L18.6343 10.4074H1.36569L3.22843 12.3045C3.38464 12.4636 3.38464 12.7216 3.22843 12.8807C3.07222 13.0398 2.81895 13.0398 2.66274 12.8807L0.117157 10.2881Z" fill="#1A1A1A" fill-opacity="0.5"/>
</svg>
