<svg width="20" height="20" viewBox="0 0 20 20" fill="none" xmlns="http://www.w3.org/2000/svg">
<path d="M6.5 1.66666H13.5C16.1667 1.66666 18.3333 3.83332 18.3333 6.49999V13.5C18.3333 14.7819 17.8241 16.0112 16.9177 16.9177C16.0113 17.8241 14.7819 18.3333 13.5 18.3333H6.5C3.83333 18.3333 1.66666 16.1667 1.66666 13.5V6.49999C1.66666 5.21811 2.17589 3.98873 3.08231 3.08231C3.98874 2.17588 5.21812 1.66666 6.5 1.66666ZM6.33333 3.33332C5.53768 3.33332 4.77462 3.64939 4.21201 4.212C3.6494 4.77461 3.33333 5.53767 3.33333 6.33332V13.6667C3.33333 15.325 4.675 16.6667 6.33333 16.6667H13.6667C14.4623 16.6667 15.2254 16.3506 15.788 15.788C16.3506 15.2254 16.6667 14.4623 16.6667 13.6667V6.33332C16.6667 4.67499 15.325 3.33332 13.6667 3.33332H6.33333ZM14.375 4.58332C14.6513 4.58332 14.9162 4.69307 15.1116 4.88842C15.3069 5.08377 15.4167 5.34872 15.4167 5.62499C15.4167 5.90126 15.3069 6.16621 15.1116 6.36156C14.9162 6.55691 14.6513 6.66666 14.375 6.66666C14.0987 6.66666 13.8338 6.55691 13.6384 6.36156C13.4431 6.16621 13.3333 5.90126 13.3333 5.62499C13.3333 5.34872 13.4431 5.08377 13.6384 4.88842C13.8338 4.69307 14.0987 4.58332 14.375 4.58332ZM10 5.83332C11.1051 5.83332 12.1649 6.27231 12.9463 7.05371C13.7277 7.83511 14.1667 8.89492 14.1667 9.99999C14.1667 11.1051 13.7277 12.1649 12.9463 12.9463C12.1649 13.7277 11.1051 14.1667 10 14.1667C8.89493 14.1667 7.83512 13.7277 7.05372 12.9463C6.27232 12.1649 5.83333 11.1051 5.83333 9.99999C5.83333 8.89492 6.27232 7.83511 7.05372 7.05371C7.83512 6.27231 8.89493 5.83332 10 5.83332ZM10 7.49999C9.33696 7.49999 8.70107 7.76338 8.23223 8.23222C7.76339 8.70106 7.5 9.33695 7.5 9.99999C7.5 10.663 7.76339 11.2989 8.23223 11.7678C8.70107 12.2366 9.33696 12.5 10 12.5C10.663 12.5 11.2989 12.2366 11.7678 11.7678C12.2366 11.2989 12.5 10.663 12.5 9.99999C12.5 9.33695 12.2366 8.70106 11.7678 8.23222C11.2989 7.76338 10.663 7.49999 10 7.49999Z" fill="#333333"/>
</svg>
