<svg width="20" height="20" viewBox="0 0 20 20" fill="none" xmlns="http://www.w3.org/2000/svg">
<path d="M2.5 10C2.5 9.67773 2.60929 9.40438 2.82787 9.17995L7.88525 3.85392C8 3.73882 8.12022 3.6525 8.2459 3.59495C8.37705 3.53165 8.5082 3.5 8.63934 3.5C8.95082 3.5 9.20219 3.60071 9.39344 3.80212C9.59016 4.00354 9.68852 4.25675 9.68852 4.56175C9.68852 4.72864 9.65574 4.87826 9.59016 5.01062C9.53005 5.14298 9.45355 5.25808 9.36066 5.35591L7.62295 7.20319L4.98361 9.74967L4.54918 9.0591L7.4918 8.89509H16.4016C16.7295 8.89509 16.9945 8.99867 17.1967 9.20584C17.3989 9.40726 17.5 9.67198 17.5 10C17.5 10.3338 17.3989 10.6042 17.1967 10.8114C16.9945 11.0186 16.7295 11.1222 16.4016 11.1222H7.4918L4.54918 10.9495L4.98361 10.259L7.62295 12.8054L9.36066 14.6441C9.45355 14.7419 9.53005 14.8599 9.59016 14.998C9.65574 15.1304 9.68852 15.28 9.68852 15.4469C9.68852 15.7461 9.59016 15.9965 9.39344 16.1979C9.20219 16.3993 8.95082 16.5 8.63934 16.5C8.36612 16.5 8.11749 16.3849 7.89344 16.1547L2.82787 10.8287C2.60929 10.6042 2.5 10.328 2.5 10Z" fill="white"/>
</svg>
