<svg width="20" height="20" viewBox="0 0 20 20" fill="none" xmlns="http://www.w3.org/2000/svg">
<path d="M5.77202 5.17617C5.53022 5.17617 5.32642 5.09326 5.16062 4.92746C4.99482 4.75475 4.91192 4.5475 4.91192 4.3057C4.91192 4.0639 4.99482 3.8601 5.16062 3.6943C5.32642 3.5285 5.53022 3.4456 5.77202 3.4456H19.1399C19.3817 3.4456 19.5855 3.5285 19.7513 3.6943C19.9171 3.8601 20 4.0639 20 4.3057C20 4.5475 19.9171 4.75475 19.7513 4.92746C19.5855 5.09326 19.3817 5.17617 19.1399 5.17617H5.77202ZM5.77202 11.1451C5.53022 11.1451 5.32642 11.0622 5.16062 10.8964C4.99482 10.7306 4.91192 10.5268 4.91192 10.285C4.91192 10.0432 4.99482 9.83938 5.16062 9.67357C5.32642 9.50777 5.53022 9.42487 5.77202 9.42487H19.1399C19.3817 9.42487 19.5855 9.50777 19.7513 9.67357C19.9171 9.83938 20 10.0432 20 10.285C20 10.5268 19.9171 10.7306 19.7513 10.8964C19.5855 11.0622 19.3817 11.1451 19.1399 11.1451H5.77202ZM5.77202 17.1244C5.53022 17.1244 5.32642 17.0415 5.16062 16.8756C4.99482 16.7098 4.91192 16.506 4.91192 16.2642C4.91192 16.0225 4.99482 15.8187 5.16062 15.6528C5.32642 15.4801 5.53022 15.3938 5.77202 15.3938H19.1399C19.3817 15.3938 19.5855 15.4801 19.7513 15.6528C19.9171 15.8187 20 16.0225 20 16.2642C20 16.506 19.9171 16.7098 19.7513 16.8756C19.5855 17.0415 19.3817 17.1244 19.1399 17.1244H5.77202ZM1.3057 5.62176C0.946459 5.62176 0.639033 5.49395 0.38342 5.23834C0.127807 4.98273 0 4.67185 0 4.3057C0 3.94646 0.127807 3.63903 0.38342 3.38342C0.639033 3.12781 0.946459 3 1.3057 3C1.67185 3 1.98273 3.12781 2.23834 3.38342C2.49395 3.63903 2.62176 3.94646 2.62176 4.3057C2.62176 4.67185 2.49395 4.98273 2.23834 5.23834C1.98273 5.49395 1.67185 5.62176 1.3057 5.62176ZM1.3057 11.5907C0.946459 11.5907 0.639033 11.4663 0.38342 11.2176C0.127807 10.962 0 10.6511 0 10.285C0 9.92573 0.127807 9.61831 0.38342 9.36269C0.639033 9.10708 0.946459 8.97927 1.3057 8.97927C1.67185 8.97927 1.98273 9.10708 2.23834 9.36269C2.49395 9.61831 2.62176 9.92573 2.62176 10.285C2.62176 10.6511 2.49395 10.962 2.23834 11.2176C1.98273 11.4663 1.67185 11.5907 1.3057 11.5907ZM1.3057 17.5699C0.946459 17.5699 0.639033 17.4421 0.38342 17.1865C0.127807 16.9309 0 16.6235 0 16.2642C0 15.905 0.127807 15.5976 0.38342 15.342C0.639033 15.0794 0.946459 14.9482 1.3057 14.9482C1.67185 14.9482 1.98273 15.0794 2.23834 15.342C2.49395 15.5976 2.62176 15.905 2.62176 16.2642C2.62176 16.6235 2.49395 16.9309 2.23834 17.1865C1.98273 17.4421 1.67185 17.5699 1.3057 17.5699Z" fill="white"/>
</svg>
