<svg width="24" height="24" viewBox="0 0 24 24" fill="none" xmlns="http://www.w3.org/2000/svg">
<path d="M7.77202 7.17617C7.53022 7.17617 7.32642 7.09326 7.16062 6.92746C6.99482 6.75475 6.91192 6.5475 6.91192 6.3057C6.91192 6.0639 6.99482 5.8601 7.16062 5.6943C7.32642 5.5285 7.53022 5.4456 7.77202 5.4456H21.1399C21.3817 5.4456 21.5855 5.5285 21.7513 5.6943C21.9171 5.8601 22 6.0639 22 6.3057C22 6.5475 21.9171 6.75475 21.7513 6.92746C21.5855 7.09326 21.3817 7.17617 21.1399 7.17617H7.77202ZM7.77202 13.1451C7.53022 13.1451 7.32642 13.0622 7.16062 12.8964C6.99482 12.7306 6.91192 12.5268 6.91192 12.285C6.91192 12.0432 6.99482 11.8394 7.16062 11.6736C7.32642 11.5078 7.53022 11.4249 7.77202 11.4249H21.1399C21.3817 11.4249 21.5855 11.5078 21.7513 11.6736C21.9171 11.8394 22 12.0432 22 12.285C22 12.5268 21.9171 12.7306 21.7513 12.8964C21.5855 13.0622 21.3817 13.1451 21.1399 13.1451H7.77202ZM7.77202 19.1244C7.53022 19.1244 7.32642 19.0415 7.16062 18.8756C6.99482 18.7098 6.91192 18.506 6.91192 18.2642C6.91192 18.0225 6.99482 17.8187 7.16062 17.6528C7.32642 17.4801 7.53022 17.3938 7.77202 17.3938H21.1399C21.3817 17.3938 21.5855 17.4801 21.7513 17.6528C21.9171 17.8187 22 18.0225 22 18.2642C22 18.506 21.9171 18.7098 21.7513 18.8756C21.5855 19.0415 21.3817 19.1244 21.1399 19.1244H7.77202ZM3.3057 7.62176C2.94646 7.62176 2.63903 7.49396 2.38342 7.23834C2.12781 6.98273 2 6.67185 2 6.3057C2 5.94646 2.12781 5.63903 2.38342 5.38342C2.63903 5.12781 2.94646 5 3.3057 5C3.67185 5 3.98273 5.12781 4.23834 5.38342C4.49396 5.63903 4.62176 5.94646 4.62176 6.3057C4.62176 6.67185 4.49396 6.98273 4.23834 7.23834C3.98273 7.49396 3.67185 7.62176 3.3057 7.62176ZM3.3057 13.5907C2.94646 13.5907 2.63903 13.4663 2.38342 13.2176C2.12781 12.962 2 12.6511 2 12.285C2 11.9257 2.12781 11.6183 2.38342 11.3627C2.63903 11.1071 2.94646 10.9793 3.3057 10.9793C3.67185 10.9793 3.98273 11.1071 4.23834 11.3627C4.49396 11.6183 4.62176 11.9257 4.62176 12.285C4.62176 12.6511 4.49396 12.962 4.23834 13.2176C3.98273 13.4663 3.67185 13.5907 3.3057 13.5907ZM3.3057 19.5699C2.94646 19.5699 2.63903 19.4421 2.38342 19.1865C2.12781 18.9309 2 18.6235 2 18.2642C2 17.905 2.12781 17.5976 2.38342 17.342C2.63903 17.0794 2.94646 16.9482 3.3057 16.9482C3.67185 16.9482 3.98273 17.0794 4.23834 17.342C4.49396 17.5976 4.62176 17.905 4.62176 18.2642C4.62176 18.6235 4.49396 18.9309 4.23834 19.1865C3.98273 19.4421 3.67185 19.5699 3.3057 19.5699Z" fill="black"/>
</svg>
