<svg width="20" height="20" viewBox="0 0 20 20" fill="none" xmlns="http://www.w3.org/2000/svg">
<g clip-path="url(#clip0_3_821)">
<path d="M0 18.1684V5.32637C0 4.9831 0.0706714 4.68696 0.212014 4.43792C0.360087 4.18889 0.585563 3.98361 0.88844 3.82207L5.31045 1.288C5.42487 1.22743 5.53256 1.17021 5.63352 1.11637C5.74121 1.06253 5.84553 1.01541 5.94649 0.975027V16.9972L2.02928 19.1073C1.7264 19.2823 1.44708 19.3698 1.19132 19.3698C0.827865 19.3698 0.538449 19.2655 0.323069 19.0568C0.10769 18.8482 0 18.552 0 18.1684ZM7.28925 16.7852V0.843781C7.39694 0.870703 7.50463 0.907721 7.61232 0.954836C7.72674 1.00195 7.84116 1.05916 7.95558 1.12647L12.529 3.90284V19.6323C12.4348 19.6053 12.3439 19.5717 12.2564 19.5313C12.1689 19.4977 12.0781 19.4539 11.9838 19.4001L7.28925 16.7852ZM13.8819 19.602V3.65044L17.9202 1.40915C18.2299 1.23416 18.5193 1.14666 18.7885 1.14666C19.1587 1.14666 19.4515 1.24762 19.6668 1.44954C19.8889 1.65145 20 1.95097 20 2.34807V15.1699C20 15.5064 19.926 15.7992 19.7779 16.0482C19.6298 16.2905 19.4043 16.4992 19.1015 16.6742L14.1949 19.4606C14.141 19.4876 14.0872 19.5111 14.0333 19.5313C13.9862 19.5582 13.9357 19.5818 13.8819 19.602Z" fill="white"/>
</g>
<defs>
<clipPath id="clip0_3_821">
<rect width="20" height="20" fill="white"/>
</clipPath>
</defs>
</svg>
