<svg width="18" height="18" viewBox="0 0 18 18" fill="none" xmlns="http://www.w3.org/2000/svg">
<path d="M0.90007 4.65853C0.682453 4.65853 0.499034 4.58391 0.349811 4.43469C0.200588 4.27925 0.125977 4.09272 0.125977 3.87511C0.125977 3.65749 0.200588 3.47407 0.349811 3.32485C0.499034 3.17562 0.682453 3.10101 0.90007 3.10101L17.226 3.10101C17.4436 3.10101 17.627 3.17562 17.7762 3.32485C17.9255 3.47407 18.0001 3.65749 18.0001 3.87511C18.0001 4.09272 17.9255 4.27925 17.7762 4.43469C17.627 4.58391 17.4436 4.65853 17.226 4.65853H0.90007ZM0.90007 10.0305C0.682453 10.0305 0.499034 9.95594 0.349811 9.80671C0.200588 9.65749 0.125977 9.47407 0.125977 9.25645C0.125977 9.03884 0.200588 8.85542 0.349811 8.7062C0.499034 8.55697 0.682453 8.48236 0.90007 8.48236H17.226C17.4436 8.48236 17.627 8.55697 17.7762 8.7062C17.9255 8.85542 18.0001 9.03884 18.0001 9.25645C18.0001 9.47407 17.9255 9.65749 17.7762 9.80671C17.627 9.95594 17.4436 10.0305 17.226 10.0305H0.90007ZM0.90007 15.4119C0.682453 15.4119 0.499034 15.3373 0.349811 15.1881C0.200588 15.0388 0.125977 14.8554 0.125977 14.6378C0.125977 14.4202 0.200588 14.2368 0.349811 14.0875C0.499034 13.9321 0.682453 13.8544 0.90007 13.8544H17.226C17.4436 13.8544 17.627 13.9321 17.7762 14.0875C17.9255 14.2368 18.0001 14.4202 18.0001 14.6378C18.0001 14.8554 17.9255 15.0388 17.7762 15.1881C17.627 15.3373 17.4436 15.4119 17.226 15.4119H0.90007Z" fill="black"/>
</svg>
