<svg width="20" height="20" viewBox="0 0 20 20" fill="none" xmlns="http://www.w3.org/2000/svg">
<path d="M1 5.17616C0.758204 5.17616 0.554404 5.09326 0.388601 4.92746C0.222798 4.75475 0.139896 4.54749 0.139896 4.3057C0.139896 4.0639 0.222798 3.8601 0.388601 3.6943C0.554404 3.5285 0.758204 3.44559 1 3.44559L19.1399 3.44559C19.3817 3.44559 19.5855 3.5285 19.7513 3.6943C19.9171 3.8601 20 4.0639 20 4.3057C20 4.54749 19.9171 4.75475 19.7513 4.92746C19.5855 5.09326 19.3817 5.17616 19.1399 5.17616H1ZM1 11.1451C0.758204 11.1451 0.554404 11.0622 0.388601 10.8964C0.222798 10.7306 0.139896 10.5268 0.139896 10.285C0.139896 10.0432 0.222798 9.83938 0.388601 9.67357C0.554404 9.50777 0.758204 9.42487 1 9.42487H19.1399C19.3817 9.42487 19.5855 9.50777 19.7513 9.67357C19.9171 9.83938 20 10.0432 20 10.285C20 10.5268 19.9171 10.7306 19.7513 10.8964C19.5855 11.0622 19.3817 11.1451 19.1399 11.1451H1ZM1 17.1244C0.758204 17.1244 0.554404 17.0415 0.388601 16.8756C0.222798 16.7098 0.139896 16.506 0.139896 16.2642C0.139896 16.0225 0.222798 15.8187 0.388601 15.6528C0.554404 15.4801 0.758204 15.3938 1 15.3938H19.1399C19.3817 15.3938 19.5855 15.4801 19.7513 15.6528C19.9171 15.8187 20 16.0225 20 16.2642C20 16.506 19.9171 16.7098 19.7513 16.8756C19.5855 17.0415 19.3817 17.1244 19.1399 17.1244H1Z" fill="white"/>
</svg>
