<svg width="18" height="18" viewBox="0 0 18 18" fill="none" xmlns="http://www.w3.org/2000/svg">
<path d="M4.2832 9.65283C4.16471 9.65283 4.05534 9.62321 3.95508 9.56396C3.85938 9.50472 3.77962 9.42725 3.71582 9.33154C3.65658 9.23128 3.62695 9.11963 3.62695 8.99658C3.62695 8.87809 3.65658 8.771 3.71582 8.67529C3.77962 8.57503 3.85938 8.49528 3.95508 8.43604C4.05534 8.37679 4.16471 8.34717 4.2832 8.34717H13.7236C13.9014 8.34717 14.054 8.41097 14.1816 8.53857C14.3092 8.66618 14.373 8.81885 14.373 8.99658C14.373 9.17887 14.3092 9.33382 14.1816 9.46143C14.054 9.58903 13.9014 9.65283 13.7236 9.65283H4.2832Z" fill="#F2F2F2"/>
</svg>
