<svg width="18" height="18" viewBox="0 0 18 18" fill="none" xmlns="http://www.w3.org/2000/svg">
<path d="M14.0815 12.096C14.6349 12.096 15.1721 12.048 15.6933 11.952C16.2209 11.8496 16.6552 11.7408 16.9962 11.6256C17.1764 11.5616 17.3276 11.5296 17.4499 11.5296C17.585 11.5296 17.7105 11.584 17.8263 11.6928C17.9421 11.7952 18 11.9328 18 12.1056C18 12.1568 17.9936 12.2336 17.9807 12.336C17.9678 12.432 17.9357 12.5376 17.8842 12.6528C17.5946 13.4016 17.1764 14.0992 16.6295 14.7456C16.0826 15.392 15.4327 15.9584 14.6799 16.4448C13.9335 16.9376 13.1164 17.3184 12.2284 17.5872C11.3405 17.8624 10.4075 18 9.42949 18C8.09115 18 6.84933 17.7728 5.70402 17.3184C4.56515 16.8704 3.56783 16.2368 2.71206 15.4176C1.8563 14.5984 1.19035 13.632 0.714209 12.5184C0.23807 11.4048 0 10.1792 0 8.8416C0 7.5808 0.234853 6.368 0.704558 5.2032C1.1807 4.032 1.84021 3.0016 2.68311 2.112C3.53244 1.2224 4.52332 0.5536 5.65576 0.1056C5.76515 0.0608 5.8681 0.032 5.96461 0.0192C6.06756 0.0064 6.14799 0 6.2059 0C6.38606 0 6.5244 0.0576 6.62091 0.1728C6.71743 0.288 6.76568 0.4096 6.76568 0.5376C6.76568 0.5888 6.75925 0.6528 6.74638 0.7296C6.73351 0.8064 6.70134 0.9024 6.64987 1.0176C6.54048 1.2608 6.44075 1.568 6.35067 1.9392C6.26702 2.3104 6.19946 2.6976 6.14799 3.1008C6.10295 3.4976 6.08043 3.8688 6.08043 4.2144C6.08043 5.424 6.26381 6.5152 6.63056 7.488C7.00375 8.4608 7.54102 9.2928 8.24236 9.984C8.9437 10.6688 9.7866 11.1936 10.771 11.5584C11.7555 11.9168 12.859 12.096 14.0815 12.096Z" fill="#F2F2F2"/>
</svg>
