<svg width="20" height="20" viewBox="0 0 20 20" fill="none" xmlns="http://www.w3.org/2000/svg">
<path d="M18.7123 1.3002C19.2669 1.84766 19.6201 2.50156 19.7721 3.26191C19.924 4.02227 20 4.88147 20 5.83951V14.1654C20 15.1234 19.924 15.9826 19.7721 16.743C19.6201 17.5033 19.2669 18.1572 18.7123 18.7047C18.1576 19.2597 17.4967 19.6133 16.7293 19.7654C15.9696 19.925 15.1149 20.0049 14.1652 20.0049H5.84615C4.89649 20.0049 4.03799 19.925 3.27066 19.7654C2.50332 19.6133 1.84236 19.2597 1.28775 18.7047C0.733143 18.1572 0.379867 17.5033 0.22792 16.743C0.0759734 15.9826 0 15.1234 0 14.1654V5.8167C0 4.87386 0.0759734 4.02227 0.22792 3.26191C0.387464 2.50156 0.740741 1.84766 1.28775 1.3002C1.84236 0.752749 2.49953 0.399185 3.25926 0.239511C4.02659 0.0798371 4.87749 0 5.81197 0H14.1652C15.1149 0 15.9696 0.0798371 16.7293 0.239511C17.4967 0.391582 18.1576 0.745146 18.7123 1.3002ZM18.0627 5.54297C18.0627 4.98031 18.0095 4.44806 17.9031 3.94623C17.8044 3.4368 17.603 3.0262 17.2991 2.71446C16.9877 2.40272 16.5736 2.19362 16.057 2.08717C15.548 1.98072 15.0161 1.92749 14.4615 1.92749H5.57265C5.00285 1.92749 4.45964 1.98072 3.94302 2.08717C3.434 2.18601 3.01994 2.39511 2.70085 2.71446C2.38936 3.0186 2.18424 3.42919 2.08547 3.94623C1.9943 4.45567 1.94872 4.99552 1.94872 5.56578V14.4619C1.94872 15.0246 1.9943 15.5606 2.08547 16.0701C2.18424 16.5719 2.38936 16.9787 2.70085 17.2904C3.01994 17.6022 3.434 17.8113 3.94302 17.9177C4.45204 18.0242 4.98765 18.0774 5.54986 18.0774H14.4615C15.0161 18.0774 15.548 18.0242 16.057 17.9177C16.5736 17.8113 16.9877 17.6022 17.2991 17.2904C17.603 16.9787 17.8044 16.5719 17.9031 16.0701C18.0095 15.5606 18.0627 15.0246 18.0627 14.4619V5.54297ZM5.01425 10.0024C5.01425 9.71351 5.10541 9.4778 5.28775 9.29531C5.47009 9.11283 5.7018 9.02159 5.98291 9.02159H9.03704V5.96497C9.03704 5.67603 9.12441 5.44413 9.29915 5.26925C9.48148 5.08676 9.7094 4.99552 9.98291 4.99552C10.2716 4.99552 10.5071 5.08676 10.6895 5.26925C10.8718 5.44413 10.963 5.67603 10.963 5.96497V9.02159H14.0285C14.3096 9.02159 14.5413 9.11283 14.7236 9.29531C14.906 9.4778 14.9972 9.71351 14.9972 10.0024C14.9972 10.2762 14.906 10.5043 14.7236 10.6868C14.5413 10.8616 14.3096 10.9491 14.0285 10.9491H10.963V14.0171C10.963 14.306 10.8718 14.5379 10.6895 14.7128C10.5071 14.8877 10.2716 14.9752 9.98291 14.9752C9.7094 14.9752 9.48148 14.8877 9.29915 14.7128C9.12441 14.5303 9.03704 14.2984 9.03704 14.0171V10.9491H5.98291C5.7018 10.9491 5.47009 10.8616 5.28775 10.6868C5.10541 10.5043 5.01425 10.2762 5.01425 10.0024Z" fill="white"/>
</svg>
