<svg width="20" height="20" viewBox="0 0 20 20" fill="none" xmlns="http://www.w3.org/2000/svg">
<path d="M2.5 10.0048C2.5 9.75048 2.589 9.53433 2.76701 9.35633C2.95137 9.17832 3.16751 9.08932 3.41545 9.08932H9.08932V3.41545C9.08932 3.17387 9.17832 2.9609 9.35633 2.77654C9.53433 2.59218 9.75048 2.5 10.0048 2.5C10.2591 2.5 10.472 2.59218 10.6437 2.77654C10.8217 2.9609 10.9107 3.17387 10.9107 3.41545V9.08932H16.5941C16.8357 9.08932 17.0455 9.17832 17.2235 9.35633C17.4078 9.53433 17.5 9.75048 17.5 10.0048C17.5 10.2591 17.4078 10.4752 17.2235 10.6532C17.0455 10.8312 16.8357 10.9202 16.5941 10.9202H10.9107V16.5941C10.9107 16.842 10.8217 17.055 10.6437 17.233C10.472 17.411 10.2591 17.5 10.0048 17.5C9.75048 17.5 9.53433 17.411 9.35633 17.233C9.17832 17.055 9.08932 16.842 9.08932 16.5941V10.9202H3.41545C3.16751 10.9202 2.95137 10.8312 2.76701 10.6532C2.589 10.4752 2.5 10.2591 2.5 10.0048Z" fill="#D9D9D9"/>
</svg>
