<svg width="20" height="20" viewBox="0 0 20 20" fill="none" xmlns="http://www.w3.org/2000/svg">
<path d="M10.0051 20C8.6327 20 7.3426 19.7358 6.13484 19.2074C4.93395 18.6859 3.87373 17.9653 2.95419 17.0458C2.03465 16.1263 1.31069 15.066 0.782295 13.8652C0.260765 12.6574 0 11.3673 0 9.99485C0 8.62927 0.260765 7.3426 0.782295 6.13484C1.30383 4.92709 2.02436 3.86344 2.9439 2.9439C3.8703 2.02436 4.93395 1.30383 6.13484 0.782295C7.3426 0.260765 8.62927 0 9.99485 0C11.3604 0 12.6471 0.260765 13.8549 0.782295C15.0626 1.30383 16.1263 2.02436 17.0458 2.9439C17.9653 3.86344 18.6859 4.92709 19.2074 6.13484C19.7358 7.3426 20 8.62927 20 9.99485C20 11.3673 19.7392 12.6574 19.2177 13.8652C18.6962 15.066 17.9756 16.1263 17.0561 17.0458C16.1366 17.9653 15.0729 18.6859 13.8652 19.2074C12.6574 19.7358 11.3707 20 10.0051 20ZM10.0051 18.1678C11.1374 18.1678 12.1976 17.9551 13.1858 17.5296C14.174 17.111 15.042 16.5277 15.79 15.7797C16.538 15.0317 17.1213 14.1637 17.5399 13.1755C17.9585 12.1873 18.1678 11.1271 18.1678 9.99485C18.1678 8.86258 17.9585 7.80237 17.5399 6.8142C17.1213 5.82604 16.538 4.95797 15.79 4.20998C15.042 3.462 14.1705 2.87871 13.1755 2.46011C12.1873 2.04152 11.1271 1.83222 9.99485 1.83222C8.86258 1.83222 7.80237 2.04152 6.8142 2.46011C5.8329 2.87871 4.96826 3.462 4.22028 4.20998C3.47229 4.95797 2.889 5.82604 2.47041 6.8142C2.05181 7.80237 1.84251 8.86258 1.84251 9.99485C1.84251 11.1271 2.05181 12.1873 2.47041 13.1755C2.889 14.1637 3.47229 15.0317 4.22028 15.7797C4.96826 16.5277 5.83634 17.111 6.8245 17.5296C7.81266 17.9551 8.87288 18.1678 10.0051 18.1678ZM9.79928 11.9712C9.22971 11.9712 8.94493 11.7036 8.94493 11.1683C8.94493 11.1477 8.94493 11.1271 8.94493 11.1065C8.94493 11.0859 8.94493 11.0688 8.94493 11.0551C8.94493 10.5953 9.05816 10.2213 9.28461 9.93309C9.51793 9.64488 9.80614 9.38068 10.1493 9.1405C10.5679 8.84543 10.8801 8.59839 11.0859 8.39938C11.2987 8.19352 11.405 7.93275 11.405 7.61709C11.405 7.26025 11.2781 6.97547 11.0242 6.76274C10.7703 6.54315 10.434 6.43335 10.0154 6.43335C9.70664 6.43335 9.42872 6.5054 9.18168 6.64951C8.9415 6.79362 8.74249 7.00635 8.58466 7.2877L8.41997 7.49357C8.3239 7.61709 8.2141 7.71659 8.09058 7.79207C7.97392 7.8607 7.83325 7.89501 7.66855 7.89501C7.48327 7.89501 7.31515 7.83325 7.16418 7.70973C7.02007 7.58621 6.94802 7.41122 6.94802 7.18477C6.94802 7.09556 6.95488 7.00978 6.96861 6.92743C6.98233 6.84508 7.00292 6.76274 7.03037 6.68039C7.17447 6.22748 7.51415 5.83634 8.04941 5.50695C8.58466 5.1707 9.26746 5.00257 10.0978 5.00257C10.6674 5.00257 11.1889 5.10208 11.6624 5.30108C12.1427 5.49322 12.527 5.77801 12.8152 6.15543C13.1034 6.52599 13.2476 6.98233 13.2476 7.52445C13.2476 8.09401 13.1 8.55035 12.8049 8.89346C12.5167 9.22971 12.1324 9.55224 11.6521 9.86104C11.3296 10.0738 11.0825 10.2762 10.911 10.4683C10.7394 10.6605 10.6502 10.8869 10.6433 11.1477C10.6433 11.1683 10.6433 11.1889 10.6433 11.2095C10.6433 11.2301 10.6433 11.2472 10.6433 11.2609C10.6365 11.4599 10.5576 11.6281 10.4066 11.7653C10.2625 11.9026 10.06 11.9712 9.79928 11.9712ZM9.77869 14.9151C9.48362 14.9151 9.22628 14.8156 9.00669 14.6166C8.79396 14.4107 8.6876 14.1637 8.6876 13.8755C8.6876 13.5804 8.79396 13.3333 9.00669 13.1343C9.21942 12.9353 9.47675 12.8358 9.77869 12.8358C10.0806 12.8358 10.338 12.9353 10.5507 13.1343C10.7703 13.3333 10.8801 13.5804 10.8801 13.8755C10.8801 14.1705 10.7703 14.4176 10.5507 14.6166C10.338 14.8156 10.0806 14.9151 9.77869 14.9151Z" fill="#D9D9D9"/>
</svg>
