<svg width="18" height="18" viewBox="0 0 18 18" fill="none" xmlns="http://www.w3.org/2000/svg">
<path d="M9 13.6644C8.36508 13.6644 7.76508 13.5437 7.2 13.3023C6.64127 13.0545 6.14603 12.7178 5.71429 12.2922C5.28889 11.8602 4.95556 11.3647 4.71429 10.8057C4.47302 10.2403 4.35238 9.64002 4.35238 9.00476C4.35238 8.36951 4.47302 7.77237 4.71429 7.21334C4.95556 6.64796 5.28889 6.15246 5.71429 5.72684C6.14603 5.29487 6.64127 4.95818 7.2 4.71678C7.76508 4.46903 8.36508 4.34516 9 4.34516C9.63492 4.34516 10.2317 4.46903 10.7905 4.71678C11.3556 4.95818 11.8508 5.29487 12.2762 5.72684C12.7079 6.15246 13.0444 6.64796 13.2857 7.21334C13.527 7.77237 13.6476 8.36951 13.6476 9.00476C13.6476 9.64002 13.527 10.2403 13.2857 10.8057C13.0444 11.3647 12.7079 11.8602 12.2762 12.2922C11.8508 12.7178 11.3556 13.0545 10.7905 13.3023C10.2317 13.5437 9.63492 13.6644 9 13.6644ZM9 1.95341C8.73333 1.95341 8.50159 1.85813 8.30476 1.66755C8.11429 1.47697 8.01905 1.24828 8.01905 0.981472C8.01905 0.708311 8.11429 0.476443 8.30476 0.285866C8.50159 0.0952885 8.73333 0 9 0C9.27302 0 9.50476 0.0952885 9.69524 0.285866C9.88571 0.476443 9.98095 0.708311 9.98095 0.981472C9.98095 1.24828 9.88571 1.47697 9.69524 1.66755C9.50476 1.85813 9.27302 1.95341 9 1.95341ZM14.6762 4.29751C14.4095 4.29751 14.1778 4.2054 13.981 4.02118C13.7905 3.8306 13.6952 3.59873 13.6952 3.32557C13.6952 3.05241 13.7905 2.82372 13.981 2.63949C14.1778 2.44891 14.4095 2.35363 14.6762 2.35363C14.9492 2.35363 15.181 2.44891 15.3714 2.63949C15.5619 2.82372 15.6571 3.05241 15.6571 3.32557C15.6571 3.59873 15.5619 3.8306 15.3714 4.02118C15.181 4.2054 14.9492 4.29751 14.6762 4.29751ZM17.0286 9.97671C16.7556 9.97671 16.5238 9.8846 16.3333 9.70037C16.1429 9.50979 16.0476 9.27793 16.0476 9.00476C16.0476 8.7316 16.1429 8.50291 16.3333 8.31869C16.5238 8.12811 16.7556 8.03282 17.0286 8.03282C17.2952 8.03282 17.5238 8.12811 17.7143 8.31869C17.9048 8.50291 18 8.7316 18 9.00476C18 9.27793 17.9048 9.50979 17.7143 9.70037C17.5238 9.8846 17.2952 9.97671 17.0286 9.97671ZM14.6762 15.6559C14.4095 15.6559 14.1778 15.5638 13.981 15.3796C13.7905 15.189 13.6952 14.9571 13.6952 14.684C13.6952 14.4108 13.7905 14.1821 13.981 13.9979C14.1778 13.8073 14.4095 13.712 14.6762 13.712C14.9492 13.712 15.181 13.8073 15.3714 13.9979C15.5619 14.1821 15.6571 14.4108 15.6571 14.684C15.6571 14.9571 15.5619 15.189 15.3714 15.3796C15.181 15.5638 14.9492 15.6559 14.6762 15.6559ZM9 18C8.73333 18 8.50159 17.9047 8.30476 17.7141C8.11429 17.5299 8.01905 17.3012 8.01905 17.0281C8.01905 16.7612 8.11429 16.5326 8.30476 16.342C8.50159 16.1514 8.73333 16.0561 9 16.0561C9.27302 16.0561 9.50476 16.1514 9.69524 16.342C9.88571 16.5326 9.98095 16.7612 9.98095 17.0281C9.98095 17.3012 9.88571 17.5299 9.69524 17.7141C9.50476 17.9047 9.27302 18 9 18ZM3.32381 15.6559C3.05714 15.6559 2.8254 15.5638 2.62857 15.3796C2.4381 15.189 2.34286 14.9571 2.34286 14.684C2.34286 14.4108 2.4381 14.1821 2.62857 13.9979C2.8254 13.8073 3.05714 13.712 3.32381 13.712C3.59048 13.712 3.81905 13.8073 4.00952 13.9979C4.20635 14.1821 4.30476 14.4108 4.30476 14.684C4.30476 14.9571 4.20635 15.189 4.00952 15.3796C3.81905 15.5638 3.59048 15.6559 3.32381 15.6559ZM0.980952 9.97671C0.714286 9.97671 0.48254 9.8846 0.285714 9.70037C0.0952381 9.50979 0 9.27793 0 9.00476C0 8.7316 0.0952381 8.50291 0.285714 8.31869C0.48254 8.12811 0.714286 8.03282 0.980952 8.03282C1.24762 8.03282 1.47619 8.12811 1.66667 8.31869C1.85714 8.50291 1.95238 8.7316 1.95238 9.00476C1.95238 9.27793 1.85714 9.50979 1.66667 9.70037C1.47619 9.8846 1.24762 9.97671 0.980952 9.97671ZM3.32381 4.29751C3.05714 4.29751 2.8254 4.2054 2.62857 4.02118C2.4381 3.8306 2.34286 3.59873 2.34286 3.32557C2.34286 3.05241 2.4381 2.82372 2.62857 2.63949C2.8254 2.44891 3.05714 2.35363 3.32381 2.35363C3.59048 2.35363 3.81905 2.44891 4.00952 2.63949C4.20635 2.82372 4.30476 3.05241 4.30476 3.32557C4.30476 3.59873 4.20635 3.8306 4.00952 4.02118C3.81905 4.2054 3.59048 4.29751 3.32381 4.29751Z" fill="#262626"/>
</svg>
