<svg width="20" height="20" viewBox="0 0 20 20" fill="none" xmlns="http://www.w3.org/2000/svg">
<g clip-path="url(#clip0_238_3848)">
<rect x="11.0785" y="-10.8212" width="2" height="32.9958" transform="rotate(45 11.0785 -10.8212)" fill="#1A1A1A" fill-opacity="0.25"/>
<rect x="13.907" y="-7.99274" width="2" height="32.9958" transform="rotate(45 13.907 -7.99274)" fill="#1A1A1A" fill-opacity="0.25"/>
<rect x="16.7354" y="-5.16431" width="2" height="32.9958" transform="rotate(45 16.7354 -5.16431)" fill="#1A1A1A" fill-opacity="0.25"/>
<rect x="19.5638" y="-2.33589" width="2" height="32.9958" transform="rotate(45 19.5638 -2.33589)" fill="#1A1A1A" fill-opacity="0.25"/>
<rect x="22.3922" y="0.492538" width="2" height="32.9958" transform="rotate(45 22.3922 0.492538)" fill="#1A1A1A" fill-opacity="0.25"/>
<rect x="25.2207" y="3.32097" width="2" height="32.9958" transform="rotate(45 25.2207 3.32097)" fill="#1A1A1A" fill-opacity="0.25"/>
<rect x="28.0491" y="6.1494" width="2" height="32.9958" transform="rotate(45 28.0491 6.1494)" fill="#1A1A1A" fill-opacity="0.25"/>
<rect x="30.8775" y="8.97783" width="2" height="32.9958" transform="rotate(45 30.8775 8.97783)" fill="#1A1A1A" fill-opacity="0.25"/>
</g>
<defs>
<clipPath id="clip0_238_3848">
<rect width="20" height="20" rx="2" fill="white"/>
</clipPath>
</defs>
</svg>
