<svg width="20" height="20" viewBox="0 0 20 20" fill="none" xmlns="http://www.w3.org/2000/svg">
<path d="M18.7167 5.00001C18.075 5.29168 17.3833 5.48334 16.6667 5.57501C17.4 5.13334 17.9667 4.43334 18.2333 3.59168C17.5417 4.00834 16.775 4.30001 15.9667 4.46668C15.3083 3.75001 14.3833 3.33334 13.3333 3.33334C11.375 3.33334 9.775 4.93334 9.775 6.90834C9.775 7.19168 9.80833 7.46668 9.86667 7.72501C6.9 7.57501 4.25833 6.15001 2.5 3.99168C2.19167 4.51668 2.01667 5.13334 2.01667 5.78334C2.01667 7.02501 2.64167 8.12501 3.60833 8.75001C3.01667 8.75001 2.46667 8.58334 1.98333 8.33334V8.35834C1.98333 10.0917 3.21667 11.5417 4.85 11.8667C4.3257 12.0108 3.77503 12.0308 3.24167 11.925C3.468 12.6354 3.91128 13.257 4.50918 13.7025C5.10708 14.1479 5.82954 14.3948 6.575 14.4083C5.31139 15.4088 3.74501 15.9495 2.13333 15.9417C1.85 15.9417 1.56667 15.925 1.28333 15.8917C2.86667 16.9083 4.75 17.5 6.76667 17.5C13.3333 17.5 16.9417 12.05 16.9417 7.32501C16.9417 7.16668 16.9417 7.01668 16.9333 6.85834C17.6333 6.35834 18.2333 5.72501 18.7167 5.00001Z" fill="#333333"/>
</svg>
