<svg width="20" height="20" viewBox="0 0 20 20" fill="none" xmlns="http://www.w3.org/2000/svg">
<path d="M3.55 3.55C2.5 4.61 2.5 6.305 2.5 9.7V10.3C2.5 13.69 2.5 15.385 3.55 16.45C4.61 17.5 6.305 17.5 9.7 17.5H10.3C13.69 17.5 15.385 17.5 16.45 16.45C17.5 15.39 17.5 13.695 17.5 10.3V9.7C17.5 6.31 17.5 4.615 16.45 3.55C15.39 2.5 13.695 2.5 10.3 2.5H9.7C6.31 2.5 4.615 2.5 3.55 3.55ZM5.03 7.065H6.75C6.805 9.925 8.065 11.135 9.065 11.385V7.065H10.68V9.53C11.665 9.425 12.705 8.3 13.055 7.06H14.665C14.5336 7.70185 14.2714 8.30972 13.8946 8.84568C13.5178 9.38163 13.0345 9.83416 12.475 10.175C13.0995 10.4857 13.6511 10.9254 14.0932 11.4649C14.5353 12.0044 14.858 12.6316 15.04 13.305H13.265C12.885 12.12 11.935 11.2 10.68 11.075V13.305H10.48C7.06 13.305 5.11 10.965 5.03 7.065Z" fill="#333333"/>
</svg>
