<svg width="20" height="20" viewBox="0 0 20 20" fill="none" xmlns="http://www.w3.org/2000/svg">
<path fill-rule="evenodd" clip-rule="evenodd" d="M10.9128 0.239441C10.348 -0.0798138 9.65204 -0.0798138 9.08719 0.239441L1.82189 4.34583C1.25705 4.66509 0.909088 5.2551 0.909088 5.89361V14.1064C0.909088 14.7449 1.25705 15.3349 1.82189 15.6542L9.08719 19.7606C9.65204 20.0798 10.348 20.0798 10.9128 19.7606L18.1781 15.6542C18.7429 15.3349 19.0909 14.7449 19.0909 14.1064V5.89361C19.0909 5.2551 18.7429 4.66509 18.1781 4.34583L10.9128 0.239441ZM11.3636 5.45455C11.3636 4.70143 10.7531 4.09091 10 4.09091C9.24688 4.09091 8.63636 4.70143 8.63636 5.45455V10.9091C8.63636 11.6622 9.24688 12.2727 10 12.2727C10.7531 12.2727 11.3636 11.6622 11.3636 10.9091V5.45455ZM11.3636 14.5455C11.3636 13.7923 10.7531 13.1818 10 13.1818C9.24688 13.1818 8.63636 13.7923 8.63636 14.5455C8.63636 15.2986 9.24688 15.9091 10 15.9091C10.7531 15.9091 11.3636 15.2986 11.3636 14.5455Z" fill="#D9D9D9"/>
</svg>
