<svg width="1000" height="1905" viewBox="0 0 1000 1905" fill="none" xmlns="http://www.w3.org/2000/svg">
<rect x="460" y="834" width="80" height="1071" fill="white"/>
<rect x="512" y="834" width="28" height="1071" fill="#F2F2F2"/>
<circle cx="500" cy="500" r="500" fill="#2D5AD7"/>
<path fill-rule="evenodd" clip-rule="evenodd" d="M386.283 331.28C388.831 322.522 396.856 316.499 405.977 316.499H437.54C448.867 316.499 458.049 307.316 458.049 295.989C458.049 284.662 448.867 275.479 437.54 275.479H405.977C378.615 275.479 354.54 293.549 346.897 319.822L334.976 360.8H334.81L307.066 433.521C303.295 433.172 299.474 432.995 295.612 432.995C227.648 432.995 172.553 488.09 172.553 556.053C172.553 624.017 227.648 679.112 295.612 679.112C363.575 679.112 418.67 624.017 418.67 556.053C418.67 506.398 389.261 463.612 346.909 444.163L359.773 410.446L482.27 542.2C501.672 563.068 528.88 574.922 557.374 574.922H584.186C593.266 633.928 644.26 679.112 705.808 679.112C773.771 679.112 828.866 624.017 828.866 556.053C828.866 488.09 773.771 432.995 705.808 432.995C694.055 432.995 682.687 434.642 671.922 437.719L653.894 400.607L630.651 344.392H663.968C675.295 344.392 684.477 335.21 684.477 323.882C684.477 312.555 675.295 303.373 663.968 303.373H600.436C600.126 303.365 599.814 303.365 599.502 303.373H568.802C557.475 303.373 548.292 312.555 548.292 323.882C548.292 335.21 557.475 344.392 568.802 344.392H586.263L593.047 360.8H377.696L386.283 331.28ZM209.471 556.053C209.471 509.296 246.724 471.239 293.169 469.946L263.733 547.102C259.695 557.685 265.002 569.537 275.585 573.575C286.168 577.613 298.021 572.306 302.058 561.723L333.706 478.772C362.173 492.831 381.753 522.155 381.753 556.053C381.753 603.628 343.186 642.194 295.612 642.194C248.037 642.194 209.471 603.628 209.471 556.053ZM584.418 401.82L517.191 518.97C515.488 517.501 513.859 515.933 512.312 514.269L407.762 401.82H584.418ZM619.346 423.367L555.926 533.886C556.408 533.897 556.89 533.903 557.374 533.903H584.737C590.611 501.587 609.106 473.67 634.929 455.444L619.346 423.367ZM622.541 533.903C627.26 516.119 637.524 500.593 651.37 489.29L673.043 533.903H622.541ZM621.739 574.922H705.384C707.061 574.958 708.755 574.788 710.43 574.399C712.832 573.846 715.072 572.871 717.07 571.556C721.937 568.352 725.359 563.13 726.145 557.081C726.462 554.688 726.358 552.222 725.796 549.797C725.414 548.136 724.83 546.552 724.072 545.073L688.414 471.669C694.032 470.517 699.849 469.912 705.808 469.912C753.382 469.912 791.949 508.479 791.949 556.053C791.949 603.628 753.382 642.194 705.808 642.194C664.715 642.194 630.343 613.421 621.739 574.922Z" fill="white"/>
<mask id="mask0_181_46" style="mask-type:alpha" maskUnits="userSpaceOnUse" x="0" y="0" width="1000" height="1000">
<circle cx="500" cy="500" r="500" fill="#2D5AD7"/>
</mask>
<g mask="url(#mask0_181_46)">
<rect x="913.847" y="15.5141" width="100.908" height="1304.74" transform="rotate(45 913.847 15.5141)" fill="#E55D47"/>
</g>
</svg>
