<svg width="143" height="50" viewBox="0 0 143 50" fill="none" xmlns="http://www.w3.org/2000/svg">
<g clip-path="url(#clip0_449_1671)">
<path d="M60.5829 0H54.62C54.3044 0 54.0486 0.253276 54.0486 0.565707V33.4587C54.0486 33.7712 54.3044 34.0244 54.62 34.0244H60.5829C60.8985 34.0244 61.1543 33.7712 61.1543 33.4587V0.565707C61.1543 0.253276 60.8985 0 60.5829 0Z" fill="white"/>
<path d="M15.6715 10.3723L11.2543 23.4938L6.83717 10.3723C6.79717 10.2563 6.6886 10.1799 6.56574 10.1799H0.0628841C-0.131402 10.1799 -0.268544 10.3694 -0.208544 10.5533L7.6286 33.8321C7.6686 33.9481 7.77717 34.0245 7.90003 34.0245H14.6115C14.7343 34.0245 14.8429 33.9453 14.8829 33.8321L22.72 10.5533C22.7829 10.3694 22.6429 10.1799 22.4486 10.1799H15.9457C15.8229 10.1799 15.7143 10.2591 15.6743 10.3723H15.6715Z" fill="white"/>
<path d="M142.286 0H136.323C136.007 0 135.751 0.253276 135.751 0.565707V33.4587C135.751 33.7712 136.007 34.0244 136.323 34.0244H142.286C142.601 34.0244 142.857 33.7712 142.857 33.4587V0.565707C142.857 0.253276 142.601 0 142.286 0Z" fill="white"/>
<path d="M119.529 16.6092C122.42 16.6092 124.771 18.937 124.771 21.7995C124.771 24.662 122.42 26.9899 119.529 26.9899C116.637 26.9899 114.286 24.662 114.286 21.7995C114.286 18.937 116.637 16.6092 119.529 16.6092ZM119.529 9.57458C112.709 9.57458 107.18 15.0478 107.18 21.7995C107.18 28.5512 112.709 34.0244 119.529 34.0244C126.349 34.0244 131.877 28.5512 131.877 21.7995C131.877 15.0478 126.349 9.57458 119.529 9.57458Z" fill="white"/>
<path d="M78.0657 16.6092C80.9572 16.6092 83.3086 18.937 83.3086 21.7995C83.3086 24.662 80.9572 26.9899 78.0657 26.9899C75.1743 26.9899 72.8229 24.662 72.8229 21.7995C72.8229 18.937 75.1743 16.6092 78.0657 16.6092ZM78.0657 9.57458C71.2457 9.57458 65.7172 15.0478 65.7172 21.7995C65.7172 28.5512 71.2457 34.0244 78.0657 34.0244C84.8857 34.0244 90.4143 28.5512 90.4143 21.7995C90.4143 15.0478 84.8857 9.57458 78.0657 9.57458Z" fill="white"/>
<path d="M43.0543 23.8785H48.8886C49.0286 23.8785 49.1486 23.7795 49.1715 23.6437C49.2715 23.0413 49.34 22.4303 49.34 21.7995C49.34 20.7869 49.2029 19.8083 48.9686 18.8692C47.6172 13.4469 42.6257 9.44168 36.7 9.57745C30.2286 9.72453 24.9029 14.9121 24.6543 21.3159C24.3829 28.2882 30.0115 34.0245 36.9943 34.0245C42.2629 34.0245 46.7486 30.7547 48.5229 26.1583C48.5943 25.9745 48.4515 25.7765 48.2543 25.7765H42.1372C42.0543 25.7765 41.9743 25.8132 41.92 25.8783C40.74 27.2728 38.9715 28.1609 36.9972 28.1609C36.72 28.1609 36.4486 28.1383 36.18 28.1043C36.1057 28.0959 36.0343 28.0817 35.96 28.0704C35.7457 28.0365 35.5343 27.9912 35.3286 27.9346C35.2772 27.9205 35.2229 27.9092 35.1715 27.895C34.9172 27.8187 34.6686 27.7282 34.4257 27.6235C34.3857 27.6065 34.3486 27.5867 34.3115 27.5698C34.1143 27.4792 33.92 27.3802 33.7343 27.2699C33.68 27.236 33.6229 27.2049 33.5686 27.1709C33.1115 26.8852 32.6972 26.543 32.3286 26.1555C32.3057 26.13 32.2829 26.1074 32.26 26.0819C32.1686 25.9829 32.0772 25.8839 31.9915 25.7793C31.9115 25.6831 31.8372 25.5813 31.7657 25.4795C31.76 25.471 31.7543 25.4653 31.7486 25.4568C31.5829 25.2249 31.4343 24.9845 31.3029 24.7327C31.1943 24.5262 31.1 24.3141 31.0143 24.0991C31 24.0595 30.9857 24.0199 30.9715 23.9803C30.96 23.9464 30.94 23.8813 30.94 23.8813H43.0657L43.0543 23.8785ZM31.2943 18.8664C31.4286 18.6146 31.5772 18.3714 31.74 18.1422C31.7457 18.1338 31.7515 18.1281 31.7572 18.1196C31.9086 17.9075 32.0743 17.7095 32.2515 17.5171C32.2743 17.4917 32.2972 17.4691 32.32 17.4436C32.6886 17.0561 33.1057 16.7138 33.5629 16.4282C33.6086 16.3999 33.6543 16.3744 33.7 16.3461C33.8972 16.2302 34.0972 16.1227 34.3057 16.0265C34.3457 16.0095 34.38 15.9897 34.42 15.9728C34.66 15.8681 34.9115 15.7776 35.1657 15.7012C35.2172 15.6871 35.2715 15.6758 35.3257 15.6616C35.5315 15.6051 35.7429 15.5626 35.9572 15.5259C36.0315 15.5145 36.1029 15.5032 36.1772 15.4919C36.4457 15.458 36.7172 15.4353 36.9943 15.4353C37.2715 15.4353 37.5429 15.458 37.8115 15.4919C37.8857 15.5004 37.9572 15.5145 38.0315 15.5259C38.2457 15.5598 38.4572 15.6051 38.6629 15.6616C38.7143 15.6758 38.7686 15.6871 38.8229 15.7012C39.08 15.7776 39.3286 15.8681 39.5686 15.9728C39.6086 15.9897 39.6457 16.0095 39.6829 16.0265C39.8915 16.1227 40.0943 16.2273 40.2886 16.3461C40.3343 16.3744 40.38 16.3999 40.4257 16.4282C40.8829 16.7138 41.2972 17.0561 41.6657 17.4436C41.6886 17.4691 41.7115 17.4917 41.7343 17.5171C41.9115 17.7095 42.0772 17.9075 42.2286 18.1196C42.2343 18.1281 42.24 18.1338 42.2457 18.1422C42.4115 18.3742 42.56 18.6146 42.6915 18.8664H31.2943Z" fill="white"/>
<path d="M96.2286 10.1799C95.9143 10.1799 95.6572 10.4345 95.6572 10.7456V37.6478C95.6572 40.4594 93.4543 42.8552 90.6172 42.9626C87.78 43.0701 85.4686 40.9798 85.1972 38.2956C85.1686 38.0014 84.9257 37.7751 84.6286 37.7751H78.6515C78.3229 37.7751 78.0629 38.0495 78.08 38.3748C78.4 44.9172 83.9115 50.1103 90.6257 49.9972C97.3972 49.8841 102.763 44.2751 102.763 37.5715V10.7456C102.763 10.4345 102.506 10.1799 102.191 10.1799H96.2286Z" fill="white"/>
</g>
<defs>
<clipPath id="clip0_449_1671">
<rect width="142.857" height="50" fill="white"/>
</clipPath>
</defs>
</svg>
